<svg width="347" height="346" viewBox="0 0 347 346" fill="red" xmlns="http://www.w3.org/2000/svg">
<path d="M85.3994 10.0854C83.6695 24.4987 78.5762 42.083 76.0776 42.083C75.4049 42.083 70.792 40.1613 65.8908 37.8551C58.0106 34.2037 45.998 30.5524 41.5773 30.5524C40.424 30.5524 41.0007 32.282 43.7876 37.9513C48.0161 46.5032 51.8601 59.8596 51.3796 64.4718L51.0913 67.5467L42.4422 68.2194C17.2637 70.1411 5.44325 71.2943 5.44325 71.7747C5.44325 72.1591 9.67171 76.6752 14.8612 81.9601C24.5674 91.7613 31.6789 102.235 31.1983 105.886C31.0061 107.232 26.105 111.267 16.0144 118.282C7.84579 123.951 1.0226 129.043 0.830402 129.525C0.638199 130.005 1.69531 130.678 3.23293 131.062C13.5158 133.272 17.9364 134.713 21.5883 136.827C26.5855 139.806 31.775 144.226 34.3697 147.878L36.2918 150.567L25.5283 161.234C16.4949 170.266 14.9572 172.092 16.1105 173.149C16.8793 173.822 22.6453 176.032 28.988 177.953C35.3307 179.875 40.9046 181.893 41.3851 182.374C41.8656 182.854 41.0967 187.754 39.2708 194.481C37.6372 200.727 36.58 206.204 36.8683 206.684C37.3488 207.549 53.2056 206.78 55.8002 205.82C58.2027 204.954 59.1638 207.26 59.8365 214.852C60.2209 219.272 60.7975 223.02 61.1819 223.211C61.9507 223.692 72.7141 219.08 72.7141 218.311C72.7141 218.023 71.4648 216.005 69.9271 213.795C65.5065 207.357 62.5273 200.727 59.7404 191.502C58.395 186.698 56.3769 180.259 55.4159 177.088C54.3587 173.918 53.3016 169.594 53.1094 167.48C51.764 157.295 51.5718 153.547 52.5329 153.547C53.0133 153.547 53.4938 155.18 53.4938 157.102C53.5899 161.426 55.7041 172.957 57.1457 177.088C57.7223 178.626 59.5482 184.296 61.1819 189.58C65.1221 201.976 70.792 213.122 75.6932 218.023C77.9996 220.329 82.9968 223.596 87.8019 225.806L95.8743 229.553L95.5865 233.108L95.2978 236.664L73.8673 243.775L52.4367 250.981L49.6497 260.109C48.1121 265.202 43.7876 280.289 39.9435 293.741C36.0995 307.097 32.4477 318.628 31.871 319.204C31.2945 319.781 29.5647 324.97 28.1231 330.831C26.6816 336.597 25.3362 342.17 25.0479 343.035C24.5674 344.668 28.4115 344.765 96.6434 344.765C164.971 344.765 168.816 344.668 168.816 343.035C168.816 342.17 164.299 337.173 158.725 331.985C153.151 326.796 148.634 321.991 148.634 321.223C148.634 320.55 152.094 316.995 156.226 313.343C166.797 304.311 166.893 303.735 162.569 292.684C155.265 274.139 139.6 245.504 133.834 240.123C132.008 238.394 131.335 236.76 131.335 234.166C131.335 230.226 132.201 229.265 137.102 227.631C142.099 225.998 147 222.251 150.364 217.543C153.054 213.795 154.208 213.122 161.607 210.816C166.124 209.375 169.776 207.837 169.776 207.453C169.776 206.973 168.047 204.474 165.932 201.976C161.8 196.979 161.031 193.424 163.818 192.559C164.683 192.271 168.047 191.79 171.218 191.406C174.389 191.118 177.272 190.637 177.656 190.349C178.522 189.964 173.62 176.32 172.467 175.839C172.082 175.647 171.698 174.782 171.698 173.822C171.698 172.669 173.044 171.804 176.503 170.939C182.461 169.402 196.684 162.579 196.684 161.33C196.684 160.753 194.858 159.408 192.648 158.255C180.347 152.009 170.353 144.803 172.371 143.65C172.755 143.457 176.311 142.304 180.155 141.151C183.999 139.998 190.246 137.596 194.089 135.866C200.721 132.887 214.368 124.816 213.79 124.239C213.406 123.951 187.362 112.805 184.864 111.94C183.711 111.46 183.423 110.883 183.903 110.018C184.287 109.25 190.63 103.1 197.934 96.3739C205.142 89.5512 211.1 83.6897 211.1 83.3054C211.1 82.5367 205.141 81.4797 187.555 78.9814C181.212 78.0205 175.638 77.0596 175.254 76.6752C174.774 76.2908 179.194 67.835 185.056 57.9378C194.571 41.6987 196.396 38.2395 195.435 38.2395C195.243 38.2395 187.362 41.0261 177.945 44.4853C164.202 49.4819 160.454 50.4429 159.494 49.4819C157.379 47.368 155.361 31.5132 155.361 17.292V3.55125L147.577 7.68309C138.447 12.5836 126.243 22.0965 120.572 28.7267C118.458 31.321 116.248 33.435 115.864 33.435C115.383 33.435 111.731 29.0149 107.599 23.5378C100.488 14.1211 88.4746 0.764656 87.1292 0.764656C86.7448 0.764656 85.976 4.99258 85.3994 10.0854ZM88.0903 250.885C84.5345 253.672 66.3714 301.62 67.8129 304.119C68.2934 304.983 72.4257 308.923 77.0386 312.959C81.7476 316.995 85.6877 320.742 85.8799 321.319C86.0721 321.895 84.9189 324.01 83.2852 326.027C81.7476 328.045 80.4022 329.102 80.4022 328.429C80.4022 327.852 81.267 326.123 82.4203 324.778L84.4384 322.184L75.2127 313.536C68.7739 307.481 65.987 304.215 65.987 302.677C65.987 299.602 76.9425 270.199 83.6695 255.114C85.3033 251.461 86.6487 249.636 87.8019 249.636C89.3395 249.732 89.3395 249.828 88.0903 250.885Z" fill="#F5F5F5"/>
<path d="M248.781 136.067C221.819 140.984 206.946 151.685 187.659 180.32C183.438 186.49 183.149 187.262 183.149 193.239C183.149 197.867 182.19 202.398 179.695 210.208C175.474 223.416 175.665 226.502 181.71 236.818C184.108 240.867 186.028 244.724 186.028 245.206C186.028 245.784 184.78 247.616 183.149 249.352C178.064 254.847 178.16 263.331 183.438 269.02C186.508 272.201 193.704 275.19 195.624 273.937C196.103 273.648 195.431 271.43 194.184 268.923C192.84 266.513 191.785 263.814 191.881 262.946C191.881 261.982 192.361 262.271 192.937 263.814C194.567 267.381 202.148 279.143 205.89 283.771C213.279 293.026 229.207 302.379 244.08 306.332C248.59 307.489 256.554 308.549 263.271 308.839C269.603 309.127 273.921 309.706 272.866 310.092C267.108 312.116 240.625 308.356 228.439 303.729L222.107 301.318L220.475 303.535C214.43 311.538 207.521 329.76 205.794 342.101L205.315 345.765H264.806C321.035 345.765 324.297 345.668 323.817 344.029C323.53 343.161 321.994 337.376 320.459 331.206C317.101 317.901 314.414 311.249 310.096 305.56C308.369 303.247 306.93 300.836 306.93 300.161C307.025 299.583 309.424 297.268 312.399 295.148C317.772 291.291 325.161 283.482 329.19 277.312C330.534 275.287 332.645 273.648 334.565 273.07C336.195 272.587 339.266 270.563 341.376 268.634C347.998 262.271 348.67 253.594 342.816 248.483C340.801 246.748 340.513 245.881 341.089 242.796C341.472 240.867 342.048 239.036 342.433 238.746C342.816 238.457 343.68 235.661 344.352 232.479C345.311 227.852 345.311 224.285 344.352 214.354C343.68 207.605 342.72 202.11 342.24 202.11C341.761 202.11 341.472 199.41 341.569 196.035C341.761 190.733 341.281 189.094 337.826 182.345C333.221 173.185 326.408 163.159 319.499 155.638C315.277 151.01 312.494 149.178 301.652 143.779C293.976 140.019 286.107 136.837 282.27 136.067C274.306 134.331 257.993 134.331 248.781 136.067Z" fill="#F5F5F5"/>
<path d="M135.808 241.32C135.808 241.61 137.648 244.307 139.973 247.294C142.298 250.281 145.495 255.002 147.239 257.604C151.792 264.83 162.351 287.376 165.451 296.337C168.842 305.875 168.551 306.549 158.379 315.125C154.504 318.401 151.308 321.87 151.308 322.64C151.308 323.508 155.666 328.132 160.995 333.142C166.808 338.442 170.682 342.778 170.682 343.934C170.682 345.668 171.457 345.765 184.245 345.765C194.417 345.765 197.808 345.475 197.808 344.512C197.808 340.465 174.073 255.58 171.845 251.534C171.457 250.763 165.257 248.739 158.089 246.909C150.92 245.175 143.46 243.054 141.426 242.188C137.454 240.646 135.808 240.357 135.808 241.32Z" fill="#F5F5F5"/>
</svg>
